<?xml version="1.0" encoding="utf-8"?>
<svg viewBox="0 0 305 373" xmlns="http://www.w3.org/2000/svg" xmlns:xlink="http://www.w3.org/1999/xlink">
  <path style="fill: rgb(255, 255, 255); stroke: rgb(0, 0, 0); stroke-width: 2px;" d="M 1.57 1.476 L 259.959 2.003 L 302.935 47.88 L 302.935 302.05 L 230.692 370.866 L 61.158 371.13 L 2.097 303.369 L 1.57 1.476 Z"/>
  <path style="fill: transparent; stroke: rgb(0, 0, 0); stroke-width: 2px;" d="M 236.035 14.605 L 5.411 14.225 L 5.411 157.606 L 236.035 156.848 L 236.035 14.605 Z"/>
  <path style="fill: transparent; stroke: rgb(0, 0, 0); stroke-width: 4px;" d="M 69.79 99.633 L 57.936 106.458 L 57.784 131.267 L 12.581 131.723 L 12.429 117.417 L 40.129 117.417 L 40.129 93.217 L 12.733 92.761 L 12.581 67.952 L 40.281 67.648 L 39.976 45.579 L 12.733 45.275 L 12.733 29.294 L 45.151 28.99"/>
  <path style="stroke: rgb(0, 0, 0); stroke-width: 2px; fill: transparent;" d="M 264.478 59.655 L 299.438 59.88 L 299.663 149.874 L 264.252 149.874 L 264.478 59.655 Z"/>
  <path style="stroke: rgb(0, 0, 0); fill: transparent; stroke-width: 2px;" d="M 268.763 21.763 C 280.406 21.763 287.684 34.367 281.862 44.45 C 278.998 49.411 273.578 52.328 267.861 51.986 C 256.228 51.639 249.334 38.829 255.451 28.928 C 258.29 24.333 263.364 21.602 268.763 21.763 Z"/>
  <path style="stroke: rgb(0, 0, 0); fill: transparent; stroke-width: 2px;" d="M 50.705 313.567 C 62.491 313.567 69.857 326.326 63.964 336.533 C 61.545 340.723 57.288 343.523 52.483 344.084 C 40.737 344.769 32.655 332.481 37.935 321.966 C 40.386 317.087 45.254 313.885 50.705 313.567 Z"/>
  <path style="stroke: rgb(0, 0, 0); fill: transparent; stroke-width: 2px;" d="M 99.478 346.11 L 68.568 314.576 L 69.285 222.321 L 99.098 191.33 L 250.521 191.33 L 281.512 222.321 L 283.199 315.872 L 250.416 346.944 C 183.468 322.75 170.449 320.518 99.478 346.11 Z"/>
  <polygon style="stroke: rgb(0, 0, 0); fill: transparent; stroke-width: 2px;" points="69.526 24.211 226.495 24.666 226.495 147.512 69.981 147.512"/>
  <polygon style="stroke: rgb(0, 0, 0);" points="280.026 149.991 280.026 146.172 283.184 146.173 283.11 149.844"/>
  <path style="stroke: rgb(0, 0, 0);" d="M 280.095 63.486 L 280.058 59.887 C 280.058 59.887 282.364 60.144 283.143 60.033 L 283.142 63.524 L 280.095 63.486 Z"/>
  <ellipse style="stroke: rgb(0, 0, 0); fill: transparent;" cx="286.409" cy="74.899" rx="2.893" ry="2.893"/>
  <ellipse style="stroke: rgb(0, 0, 0); fill: transparent;" cx="286.455" cy="89.702" rx="2.893" ry="2.893"/>
  <ellipse style="stroke: rgb(0, 0, 0); fill: transparent;" cx="286.408" cy="104.752" rx="2.893" ry="2.893"/>
  <ellipse style="stroke: rgb(0, 0, 0); fill: transparent;" cx="286.223" cy="119.433" rx="2.893" ry="2.893"/>
  <ellipse style="stroke: rgb(0, 0, 0); fill: transparent;" cx="286.409" cy="134.483" rx="2.893" ry="2.893"/>
  <path style="stroke: rgb(0, 0, 0);" d="M 124.276 219.639 C 146.788 219.639 160.858 244.009 149.602 263.505 C 144.658 272.069 135.72 277.554 125.846 278.085 C 103.366 279.291 88.011 255.71 98.206 235.639 C 103.192 225.824 113.267 219.64 124.276 219.639 Z"/>
  <path style="stroke: rgb(0, 0, 0);" d="M 235.422 220.539 C 257.934 220.539 272.004 244.909 260.748 264.405 C 255.804 272.969 246.866 278.454 236.992 278.985 C 214.512 280.191 199.157 256.61 209.352 236.539 C 214.338 226.724 224.413 220.54 235.422 220.539 Z"/>
  <path style="stroke: rgb(0, 0, 0); fill: rgb(255, 255, 255);" d="M 220.774 306.057 L 250.11 306.057 L 249.801 261.016 C 249.861 233.985 221.032 233.446 221.226 261.016 L 220.774 306.057 Z"/>
  <path style="stroke: rgb(0, 0, 0); fill: rgb(255, 255, 255);" d="M 109.628 305.157 L 138.964 305.157 L 138.655 260.116 C 138.715 233.085 109.886 232.546 110.08 260.116 L 109.628 305.157 Z"/>
</svg>