<?xml version="1.0" encoding="utf-8"?>
<svg viewBox="0 0 500 500" xmlns="http://www.w3.org/2000/svg">
  <polygon style="" points="0 250 250 0 500 250 250 500"/>
  <path style="fill: rgb(255, 174, 0);" d="M 145.154 186.526 L 145.09 167.882 C 145.069 161.72 150.05 156.71 156.212 156.696 L 347.515 156.658 C 353.571 156.657 358.452 161.621 358.349 167.676 L 358.349 186.573 L 145.154 186.526 Z"/>
  <path style="fill: rgb(255, 174, 0);" d="M 145.127 195.151 L 358.187 195.087 L 358.342 340.895 C 358.344 342.932 356.669 344.572 354.633 344.527 L 148.797 344.472 C 146.73 344.471 145.055 342.796 145.055 340.73 L 145.127 195.151 Z"/>
  <text style="font-family: Consolas; font-size: 42px; letter-spacing: -1.3px; white-space: pre;" x="165.642" y="286.224">/home#</text>
  <polygon style="" points="312.586 252.936 329.035 252.936 329.035 290.277 312.466 290.397"/>
</svg>